<?xml version="1.0" encoding="UTF-8"?>
<!DOCTYPE svg PUBLIC "-//W3C//DTD SVG 1.1//EN" "http://www.w3.org/Graphics/SVG/1.1/DTD/svg11.dtd">
<svg version="1.1" xmlns="http://www.w3.org/2000/svg" xmlns:xlink="http://www.w3.org/1999/xlink" x="0" y="0" width="824.696" height="718.868" viewBox="0, 0, 824.696, 718.868">
  <g id="Layer_1">
    <path d="M101.412,108.483 L3.401,59.25 L88.773,3.401 L185.594,53.384 z" fill="#E4E4E3"/>
    <path d="M186.81,154.601 L101.412,210.463 L101.412,108.483 L185.594,53.384 z" fill="#CBCCCB"/>
    <path d="M3.402,59.25 L3.402,160.48 L101.412,210.463 L101.412,108.483 z" fill="#B4B5B4"/>
    <g>
      <path d="M132.953,123.33 C132.953,128.878 128.453,133.372 122.92,133.372 C117.358,133.372 112.872,128.878 112.872,123.33 C112.872,117.786 117.358,113.297 122.92,113.297 C128.453,113.297 132.953,117.786 132.953,123.33" fill="#343534"/>
      <path d="M59.788,59.25 C59.788,64.804 55.288,69.292 49.749,69.292 C44.192,69.292 39.707,64.804 39.707,59.25 C39.707,53.706 44.192,49.214 49.749,49.214 C55.288,49.214 59.788,53.706 59.788,59.25" fill="#343534"/>
      <path d="M107.641,84.092 C107.641,89.636 103.147,94.134 97.585,94.134 C92.055,94.134 87.557,89.636 87.557,84.092 C87.557,78.548 92.055,74.05 97.585,74.05 C103.147,74.05 107.641,78.548 107.641,84.092" fill="#343534"/>
      <path d="M145.833,55.938 C145.833,61.482 141.33,65.975 135.8,65.975 C130.242,65.975 125.752,61.482 125.752,55.938 C125.752,50.394 130.242,45.9 135.8,45.9 C141.33,45.9 145.833,50.394 145.833,55.938" fill="#343534"/>
      <path d="M98.824,30.304 C98.824,35.848 94.335,40.346 88.773,40.346 C83.247,40.346 78.74,35.848 78.74,30.304 C78.74,24.76 83.247,20.262 88.773,20.262 C94.335,20.262 98.824,24.76 98.824,30.304" fill="#343534"/>
      <path d="M32.07,97.291 C32.07,102.844 27.581,107.333 22.041,107.333 C16.493,107.333 12.004,102.844 12.004,97.291 C12.004,91.747 16.493,87.254 22.041,87.254 C27.581,87.254 32.07,91.747 32.07,97.291" fill="#343534"/>
      <path d="M57.86,111.643 C57.86,117.192 53.362,121.685 47.812,121.685 C42.268,121.685 37.766,117.192 37.766,111.643 C37.766,106.099 42.268,101.604 47.812,101.604 C53.362,101.604 57.86,106.099 57.86,111.643" fill="#343534"/>
      <path d="M85.849,125.852 C85.849,131.405 81.342,135.9 75.801,135.9 C70.254,135.9 65.756,131.405 65.756,125.852 C65.756,120.308 70.254,115.815 75.801,115.815 C81.342,115.815 85.849,120.308 85.849,125.852" fill="#343534"/>
      <path d="M30.97,141.698 C30.97,147.245 26.481,151.74 20.925,151.74 C15.393,151.74 10.892,147.245 10.892,141.698 C10.892,136.154 15.393,131.661 20.925,131.661 C26.481,131.661 30.97,136.154 30.97,141.698" fill="#343534"/>
      <path d="M56.751,156.055 C56.751,161.599 52.248,166.092 46.714,166.092 C41.156,166.092 36.67,161.599 36.67,156.055 C36.67,150.511 41.156,146.017 46.714,146.017 C52.248,146.017 56.751,150.511 56.751,156.055" fill="#343534"/>
      <path d="M84.736,170.263 C84.736,175.812 80.233,180.307 74.707,180.307 C69.145,180.307 64.656,175.812 64.656,170.263 C64.656,164.719 69.145,160.226 74.707,160.226 C80.233,160.226 84.736,164.719 84.736,170.263" fill="#343534"/>
      <path d="M180.055,145.936 C180.055,151.48 175.566,155.978 170.022,155.978 C164.478,155.978 159.994,151.48 159.994,145.936 C159.994,140.392 164.478,135.899 170.022,135.899 C175.566,135.899 180.055,140.392 180.055,145.936" fill="#343534"/>
      <path d="M735.896,360.984 L637.884,311.752 L723.257,255.902 L820.078,305.886 z" fill="#D8232A"/>
      <path d="M821.294,407.103 L735.896,462.965 L735.896,360.984 L820.078,305.886 z" fill="#AB2430"/>
      <path d="M637.884,311.752 L637.884,412.981 L735.896,462.965 L735.896,360.984 z" fill="#97202A"/>
      <path d="M767.436,375.832 C767.436,381.379 762.938,385.874 757.402,385.874 C751.84,385.874 747.355,381.379 747.355,375.832 C747.355,370.288 751.84,365.798 757.402,365.798 C762.938,365.798 767.436,370.288 767.436,375.832" fill="#F2F1F0"/>
      <path d="M694.27,311.752 C694.27,317.305 689.772,321.794 684.233,321.794 C678.675,321.794 674.19,317.305 674.19,311.752 C674.19,306.208 678.675,301.715 684.233,301.715 C689.772,301.715 694.27,306.208 694.27,311.752" fill="#F2F1F0"/>
      <path d="M742.125,336.593 C742.125,342.137 737.631,346.636 732.069,346.636 C726.537,346.636 722.041,342.137 722.041,336.593 C722.041,331.049 726.537,326.551 732.069,326.551 C737.631,326.551 742.125,331.049 742.125,336.593" fill="#F2F1F0"/>
      <path d="M780.316,308.44 C780.316,313.984 775.814,318.477 770.282,318.477 C764.726,318.477 760.237,313.984 760.237,308.44 C760.237,302.895 764.726,298.401 770.282,298.401 C775.814,298.401 780.316,302.895 780.316,308.44" fill="#F2F1F0"/>
      <path d="M733.308,282.806 C733.308,288.35 728.819,292.848 723.258,292.848 C717.731,292.848 713.224,288.35 713.224,282.806 C713.224,277.262 717.731,272.764 723.258,272.764 C728.819,272.764 733.308,277.262 733.308,282.806" fill="#F2F1F0"/>
      <path d="M666.553,349.792 C666.553,355.345 662.064,359.834 656.525,359.834 C650.976,359.834 646.486,355.345 646.486,349.792 C646.486,344.248 650.976,339.755 656.525,339.755 C662.064,339.755 666.553,344.248 666.553,349.792" fill="#F2F1F0"/>
      <path d="M692.342,364.144 C692.342,369.694 687.846,374.186 682.297,374.186 C676.752,374.186 672.251,369.694 672.251,364.144 C672.251,358.6 676.752,354.106 682.297,354.106 C687.846,354.106 692.342,358.6 692.342,364.144" fill="#F2F1F0"/>
      <path d="M720.331,378.353 C720.331,383.907 715.825,388.401 710.286,388.401 C704.736,388.401 700.24,383.907 700.24,378.353 C700.24,372.809 704.736,368.317 710.286,368.317 C715.825,368.317 720.331,372.809 720.331,378.353" fill="#F2F1F0"/>
      <path d="M665.455,394.199 C665.455,399.747 660.966,404.241 655.407,404.241 C649.877,404.241 645.374,399.747 645.374,394.199 C645.374,388.655 649.877,384.162 655.407,384.162 C660.966,384.162 665.455,388.655 665.455,394.199" fill="#F2F1F0"/>
      <path d="M691.233,408.557 C691.233,414.101 686.732,418.594 681.196,418.594 C675.638,418.594 671.154,414.101 671.154,408.557 C671.154,403.012 675.638,398.518 681.196,398.518 C686.732,398.518 691.233,403.012 691.233,408.557" fill="#F2F1F0"/>
      <path d="M719.219,422.764 C719.219,428.314 714.716,432.808 709.189,432.808 C703.628,432.808 699.138,428.314 699.138,422.764 C699.138,417.22 703.628,412.727 709.189,412.727 C714.716,412.727 719.219,417.22 719.219,422.764" fill="#F2F1F0"/>
      <path d="M814.54,398.438 C814.54,403.982 810.05,408.48 804.506,408.48 C798.962,408.48 794.476,403.982 794.476,398.438 C794.476,392.894 798.962,388.401 804.506,388.401 C810.05,388.401 814.54,392.894 814.54,398.438" fill="#F2F1F0"/>
      <path d="M101.413,360.984 L3.401,311.752 L88.773,255.902 L185.596,305.886 z" fill="#0B8B42"/>
      <path d="M186.812,407.103 L101.413,462.965 L101.413,360.984 L185.596,305.886 z" fill="#2C5730"/>
      <path d="M3.402,311.752 L3.402,412.981 L101.414,462.965 L101.414,360.984 z" fill="#2C6636"/>
      <path d="M132.951,375.832 C132.951,381.379 128.455,385.874 122.918,385.874 C117.356,385.874 112.872,381.379 112.872,375.832 C112.872,370.288 117.356,365.798 122.918,365.798 C128.455,365.798 132.951,370.288 132.951,375.832" fill="#1A1919"/>
      <path d="M59.786,311.752 C59.786,317.305 55.29,321.794 49.749,321.794 C44.19,321.794 39.707,317.305 39.707,311.752 C39.707,306.208 44.19,301.715 49.749,301.715 C55.29,301.715 59.786,306.208 59.786,311.752" fill="#1A1919"/>
      <path d="M107.641,336.593 C107.641,342.137 103.148,346.636 97.586,346.636 C92.055,346.636 87.557,342.137 87.557,336.593 C87.557,331.049 92.055,326.551 97.586,326.551 C103.148,326.551 107.641,331.049 107.641,336.593" fill="#1A1919"/>
      <path d="M145.833,308.44 C145.833,313.984 141.332,318.477 135.8,318.477 C130.243,318.477 125.754,313.984 125.754,308.44 C125.754,302.895 130.243,298.401 135.8,298.401 C141.332,298.401 145.833,302.895 145.833,308.44" fill="#1A1919"/>
      <path d="M98.824,282.806 C98.824,288.35 94.335,292.848 88.773,292.848 C83.247,292.848 78.74,288.35 78.74,282.806 C78.74,277.262 83.247,272.764 88.773,272.764 C94.335,272.764 98.824,277.262 98.824,282.806" fill="#1A1919"/>
      <path d="M32.07,349.792 C32.07,355.345 27.581,359.834 22.043,359.834 C16.493,359.834 12.004,355.345 12.004,349.792 C12.004,344.248 16.493,339.755 22.043,339.755 C27.581,339.755 32.07,344.248 32.07,349.792" fill="#1A1919"/>
      <path d="M57.86,364.144 C57.86,369.694 53.361,374.186 47.814,374.186 C42.27,374.186 37.767,369.694 37.767,364.144 C37.767,358.6 42.27,354.106 47.814,354.106 C53.361,354.106 57.86,358.6 57.86,364.144" fill="#1A1919"/>
      <path d="M85.849,378.353 C85.849,383.907 81.342,388.401 75.803,388.401 C70.254,388.401 65.756,383.907 65.756,378.353 C65.756,372.809 70.254,368.317 75.803,368.317 C81.342,368.317 85.849,372.809 85.849,378.353" fill="#1A1919"/>
      <path d="M30.97,394.199 C30.97,399.747 26.481,404.241 20.923,404.241 C15.393,404.241 10.89,399.747 10.89,394.199 C10.89,388.655 15.393,384.162 20.923,384.162 C26.481,384.162 30.97,388.655 30.97,394.199" fill="#1A1919"/>
      <path d="M56.751,408.557 C56.751,414.101 52.249,418.594 46.712,418.594 C41.155,418.594 36.672,414.101 36.672,408.557 C36.672,403.012 41.155,398.518 46.712,398.518 C52.249,398.518 56.751,403.012 56.751,408.557" fill="#1A1919"/>
      <path d="M84.735,422.764 C84.735,428.314 80.233,432.808 74.707,432.808 C69.145,432.808 64.656,428.314 64.656,422.764 C64.656,417.22 69.145,412.727 74.707,412.727 C80.233,412.727 84.735,417.22 84.735,422.764" fill="#1A1919"/>
      <path d="M180.055,398.438 C180.055,403.982 175.566,408.48 170.022,408.48 C164.478,408.48 159.992,403.982 159.992,398.438 C159.992,392.894 164.478,388.401 170.022,388.401 C175.566,388.401 180.055,392.894 180.055,398.438" fill="#1A1919"/>
      <path d="M821.204,565.494 C808.475,570.195 710.572,605.889 709.056,606.717 C707.612,607.629 643.199,555.797 630.849,545.72 C638.729,542.304 732.695,507.222 739.06,508.435 C745.578,509.725 818.404,561.628 821.204,565.494 M732.92,555.72 C732.92,552.31 730.197,549.51 726.782,549.51 C723.377,549.51 720.571,552.31 720.571,555.72 C720.571,559.053 723.377,561.859 726.782,561.859 C730.197,561.859 732.92,559.053 732.92,555.72" fill="#BA3143"/>
      <path d="M794.225,595.202 C797.641,595.202 800.442,597.932 800.442,601.342 C800.442,604.746 797.641,607.552 794.225,607.552 C790.82,607.552 788.092,604.746 788.092,601.342 C788.092,597.932 790.82,595.202 794.225,595.202" fill="#1A1919"/>
      <path d="M792.485,648.171 C795.895,648.171 798.701,650.9 798.701,654.31 C798.701,657.72 795.895,660.45 792.485,660.45 C789.075,660.45 786.351,657.72 786.351,654.31 C786.351,650.9 789.075,648.171 792.485,648.171" fill="#1A1919"/>
      <path d="M734.359,683.563 C737.775,683.563 740.498,680.757 740.498,677.346 C740.498,674.013 737.775,671.207 734.359,671.207 C730.955,671.207 728.149,674.013 728.149,677.346 C728.149,680.757 730.955,683.563 734.359,683.563 M792.485,660.45 C795.895,660.45 798.701,657.72 798.701,654.31 C798.701,650.9 795.895,648.171 792.485,648.171 C789.075,648.171 786.351,650.9 786.351,654.31 C786.351,657.72 789.075,660.45 792.485,660.45 M800.441,601.342 C800.441,597.932 797.641,595.202 794.225,595.202 C790.821,595.202 788.091,597.932 788.091,601.342 C788.091,604.746 790.821,607.552 794.225,607.552 C797.641,607.552 800.441,604.746 800.441,601.342 M730.724,619.831 C730.724,623.241 733.453,626.041 736.863,626.041 C740.273,626.041 743.003,623.241 743.003,619.831 C743.003,616.421 740.273,613.692 736.863,613.692 C733.453,613.692 730.724,616.421 730.724,619.831 M821.281,565.648 C821.588,567.845 816.509,672.196 815.295,672.8 C814.011,673.403 712.762,713.945 704.201,715.39 C704.048,702.733 709.056,606.717 709.056,606.717 C710.571,605.889 808.475,570.195 821.203,565.495 C821.281,565.572 821.281,565.648 821.281,565.648 M768.46,642.488 C771.875,642.488 774.676,639.687 774.676,636.271 C774.676,632.867 771.875,630.138 768.46,630.138 C765.055,630.138 762.327,632.867 762.327,636.271 C762.327,639.687 765.055,642.488 768.46,642.488" fill="#991A38"/>
      <path d="M774.676,636.271 C774.676,639.687 771.876,642.488 768.46,642.488 C765.056,642.488 762.327,639.687 762.327,636.271 C762.327,632.867 765.056,630.138 768.46,630.138 C771.876,630.138 774.676,632.867 774.676,636.271" fill="#1A1919"/>
      <path d="M736.863,613.692 C740.273,613.692 743.003,616.42 743.003,619.83 C743.003,623.24 740.273,626.041 736.863,626.041 C733.453,626.041 730.724,623.24 730.724,619.83 C730.724,616.42 733.453,613.692 736.863,613.692" fill="#1A1919"/>
      <path d="M734.359,671.207 C737.775,671.207 740.498,674.013 740.498,677.346 C740.498,680.756 737.775,683.563 734.359,683.563 C730.955,683.563 728.149,680.756 728.149,677.346 C728.149,674.013 730.955,671.207 734.359,671.207" fill="#1A1919"/>
      <path d="M726.782,549.509 C730.197,549.509 732.92,552.31 732.92,555.72 C732.92,559.053 730.197,561.859 726.782,561.859 C723.377,561.859 720.571,559.053 720.571,555.72 C720.571,552.31 723.377,549.509 726.782,549.509" fill="#343534"/>
      <path d="M672.682,648.774 C676.086,648.774 678.892,651.51 678.892,654.914 C678.892,658.324 676.086,661.13 672.682,661.13 C669.272,661.13 666.542,658.324 666.542,654.914 C666.542,651.51 669.272,648.774 672.682,648.774" fill="#1A1919"/>
      <path d="M650.244,596.339 C653.659,596.339 656.46,599.062 656.46,602.478 C656.46,605.888 653.659,608.611 650.244,608.611 C646.839,608.611 644.111,605.888 644.111,602.478 C644.111,599.062 646.839,596.339 650.244,596.339" fill="#1A1919"/>
      <path d="M644.111,602.479 C644.111,605.889 646.839,608.611 650.244,608.611 C653.659,608.611 656.46,605.889 656.46,602.479 C656.46,599.062 653.659,596.339 650.244,596.339 C646.839,596.339 644.111,599.062 644.111,602.479 M703.674,715.467 C700.868,714.555 626.527,655.447 626.527,650.977 C626.527,646.579 626.527,549.208 630.317,546.017 C630.393,545.946 630.547,545.869 630.849,545.721 C643.199,555.797 707.611,607.629 709.056,606.717 C709.056,606.717 704.048,702.733 704.201,715.39 C703.899,715.467 703.745,715.467 703.674,715.467 M678.892,654.914 C678.892,651.51 676.086,648.775 672.682,648.775 C669.272,648.775 666.542,651.51 666.542,654.914 C666.542,658.324 669.272,661.131 672.682,661.131 C676.086,661.131 678.892,658.324 678.892,654.914" fill="#A12F39"/>
      <path d="M198.155,565.648 C198.463,567.845 193.383,672.196 192.17,672.799 C190.885,673.403 89.636,713.945 81.076,715.39 C80.922,702.733 85.931,606.717 85.931,606.717 C87.446,605.889 185.35,570.195 198.078,565.494 C198.155,565.572 198.155,565.648 198.155,565.648 M177.316,601.342 C177.316,597.932 174.516,595.202 171.099,595.202 C167.695,595.202 164.966,597.932 164.966,601.342 C164.966,604.746 167.695,607.552 171.099,607.552 C174.516,607.552 177.316,604.746 177.316,601.342 M175.575,654.31 C175.575,650.9 172.769,648.171 169.359,648.171 C165.948,648.171 163.226,650.9 163.226,654.31 C163.226,657.72 165.948,660.45 169.359,660.45 C172.769,660.45 175.575,657.72 175.575,654.31 M151.55,636.271 C151.55,632.867 148.75,630.138 145.334,630.138 C141.93,630.138 139.201,632.867 139.201,636.271 C139.201,639.687 141.93,642.488 145.334,642.488 C148.75,642.488 151.55,639.687 151.55,636.271 M119.877,619.831 C119.877,616.421 117.148,613.692 113.738,613.692 C110.328,613.692 107.598,616.421 107.598,619.831 C107.598,623.241 110.328,626.041 113.738,626.041 C117.148,626.041 119.877,623.241 119.877,619.831 M117.373,677.346 C117.373,674.013 114.65,671.207 111.234,671.207 C107.83,671.207 105.023,674.013 105.023,677.346 C105.023,680.757 107.83,683.563 111.234,683.563 C114.65,683.563 117.373,680.757 117.373,677.346" fill="#1A1919"/>
      <path d="M171.099,595.202 C174.515,595.202 177.315,597.932 177.315,601.342 C177.315,604.746 174.515,607.552 171.099,607.552 C167.695,607.552 164.966,604.746 164.966,601.342 C164.966,597.932 167.695,595.202 171.099,595.202" fill="#A12F39"/>
      <path d="M169.359,648.171 C172.769,648.171 175.575,650.9 175.575,654.31 C175.575,657.72 172.769,660.45 169.359,660.45 C165.949,660.45 163.226,657.72 163.226,654.31 C163.226,650.9 165.949,648.171 169.359,648.171" fill="#A12F39"/>
      <path d="M115.934,508.435 C122.452,509.725 195.277,561.628 198.078,565.494 C185.35,570.195 87.446,605.889 85.931,606.717 C84.486,607.629 20.073,555.797 7.723,545.72 C15.604,542.304 109.57,507.221 115.934,508.435 M109.795,555.72 C109.795,552.31 107.072,549.509 103.656,549.509 C100.252,549.509 97.445,552.31 97.445,555.72 C97.445,559.053 100.252,561.859 103.656,561.859 C107.072,561.859 109.795,559.053 109.795,555.72" fill="#414241"/>
      <path d="M145.334,630.138 C148.75,630.138 151.55,632.867 151.55,636.271 C151.55,639.687 148.75,642.488 145.334,642.488 C141.93,642.488 139.201,639.687 139.201,636.271 C139.201,632.867 141.93,630.138 145.334,630.138" fill="#A12F39"/>
      <path d="M113.738,613.692 C117.148,613.692 119.877,616.42 119.877,619.83 C119.877,623.24 117.148,626.041 113.738,626.041 C110.328,626.041 107.598,623.24 107.598,619.83 C107.598,616.42 110.328,613.692 113.738,613.692" fill="#A12F39"/>
      <path d="M111.233,671.207 C114.649,671.207 117.373,674.013 117.373,677.346 C117.373,680.756 114.649,683.563 111.233,683.563 C107.829,683.563 105.023,680.756 105.023,677.346 C105.023,674.013 107.829,671.207 111.233,671.207" fill="#A12F39"/>
      <path d="M103.655,549.509 C107.071,549.509 109.795,552.31 109.795,555.72 C109.795,559.053 107.071,561.859 103.655,561.859 C100.251,561.859 97.445,559.053 97.445,555.72 C97.445,552.31 100.251,549.509 103.655,549.509" fill="#991A38"/>
      <path d="M7.723,545.72 C20.073,555.797 84.486,607.629 85.931,606.717 C85.931,606.717 80.922,702.732 81.076,715.39 C80.774,715.466 80.62,715.466 80.549,715.466 C77.743,714.555 3.402,655.447 3.402,650.977 C3.402,646.578 3.402,549.208 7.19,546.017 C7.268,545.946 7.422,545.869 7.723,545.72 M55.767,654.914 C55.767,651.51 52.96,648.774 49.556,648.774 C46.146,648.774 43.417,651.51 43.417,654.914 C43.417,658.324 46.146,661.13 49.556,661.13 C52.96,661.13 55.767,658.324 55.767,654.914 M33.334,602.478 C33.334,599.062 30.534,596.339 27.118,596.339 C23.714,596.339 20.985,599.062 20.985,602.478 C20.985,605.888 23.714,608.611 27.118,608.611 C30.534,608.611 33.334,605.888 33.334,602.478" fill="#343534"/>
      <path d="M49.557,648.774 C52.961,648.774 55.767,651.51 55.767,654.914 C55.767,658.324 52.961,661.13 49.557,661.13 C46.147,661.13 43.417,658.324 43.417,654.914 C43.417,651.51 46.147,648.774 49.557,648.774" fill="#A12F39"/>
      <path d="M27.118,596.339 C30.534,596.339 33.334,599.062 33.334,602.478 C33.334,605.888 30.534,608.611 27.118,608.611 C23.714,608.611 20.985,605.888 20.985,602.478 C20.985,599.062 23.714,596.339 27.118,596.339" fill="#A12F39"/>
      <path d="M476.616,358.049 L403.244,287.39 L500.115,255.902 L573.488,326.55 z" fill="#A4D7D3"/>
      <path d="M454.546,299.195 C453.72,302.771 448.21,304.572 442.236,303.195 C436.262,301.823 432.079,297.797 432.91,294.216 C433.732,290.63 439.242,288.839 445.221,290.211 C451.2,291.589 455.378,295.604 454.546,299.195" fill="#565A4A"/>
      <path d="M543.821,319.73 C542.999,323.316 537.49,325.112 531.511,323.734 C525.531,322.357 521.348,318.332 522.185,314.75 C523.001,311.159 528.516,309.374 534.49,310.746 C540.474,312.123 544.643,316.138 543.821,319.73" fill="#565A4A"/>
      <path d="M493.029,286.686 C487.06,285.308 482.882,281.288 483.708,277.707 C484.534,274.116 490.044,272.32 496.013,273.697 C501.993,275.074 506.176,279.09 505.349,282.676 C504.523,286.262 499.013,288.064 493.029,286.686" fill="#565A4A"/>
      <path d="M480.708,340.254 C474.734,338.876 470.556,334.851 471.377,331.264 C472.214,327.673 477.723,325.888 483.698,327.259 C489.677,328.638 493.845,332.658 493.023,336.244 C492.197,339.83 486.682,341.631 480.708,340.254" fill="#565A4A"/>
      <path d="M455.353,451.71 L387.265,381.822 L403.499,286.997 L476.617,358.049 z" fill="#538292"/>
      <path d="M410.682,373.843 C412.499,379.624 411.284,384.96 407.978,385.761 C404.662,386.542 400.504,382.501 398.678,376.721 C396.862,370.935 398.066,365.609 401.382,364.813 C404.703,364.017 408.856,368.063 410.682,373.843" fill="#85596D"/>
      <path d="M419.12,336.637 C415.81,337.432 411.657,333.397 409.836,327.607 C408.009,321.821 409.223,316.485 412.524,315.694 C415.845,314.903 420.008,318.944 421.835,324.734 C423.651,330.515 422.441,335.846 419.12,336.637" fill="#565A4A"/>
      <path d="M446.318,423.008 C443.002,423.799 438.833,419.758 437.027,413.978 C435.201,408.193 436.415,402.862 439.721,402.071 C443.032,401.27 447.195,405.316 449.027,411.096 C450.843,416.886 449.634,422.208 446.318,423.008" fill="#565A4A"/>
      <path d="M454.817,451.588 L546.602,418.478 L573.432,326.086 L476.616,358.048 z" fill="#AFC48A"/>
      <path d="M454.817,451.588 L546.602,418.478 L573.432,326.086 L476.616,358.048 z" fill="#7BAB9F"/>
      <path d="M529.021,401.071 C524.863,405.469 523.613,410.8 526.256,412.963 C528.878,415.126 534.388,413.31 538.561,408.902 C542.734,404.495 543.969,399.168 541.327,397.005 C538.694,394.842 533.195,396.663 529.021,401.071" fill="#565A4A"/>
      <path d="M489.687,368.777 C485.524,373.175 484.28,378.506 486.907,380.665 C489.544,382.833 495.054,381.006 499.227,376.609 C503.385,372.201 504.635,366.874 501.993,364.706 C499.36,362.553 493.86,364.369 489.687,368.777" fill="#565A4A"/>
      <path d="M484.83,392.862 C480.657,397.27 479.422,402.597 482.045,404.754 C484.682,406.918 490.197,405.101 494.355,400.693 C498.523,396.285 499.762,390.965 497.136,388.802 C494.503,386.633 488.983,388.454 484.83,392.862" fill="#565A4A"/>
      <path d="M537.684,363.91 C540.322,366.074 545.826,364.252 549.994,359.85 C554.162,355.442 555.397,350.11 552.77,347.958 C550.132,345.784 544.622,347.61 540.459,352.023 C536.291,356.426 535.052,361.742 537.684,363.91" fill="#565A4A"/>
      <path d="M531.827,389.73 C534.454,391.898 539.959,390.082 544.133,385.674 C548.295,381.261 549.535,375.935 546.903,373.777 C544.275,371.614 538.76,373.435 534.592,377.853 C530.439,382.25 529.184,387.567 531.827,389.73" fill="#565A4A"/>
      <path d="M475.484,429.722 C478.117,431.88 483.627,430.059 487.794,425.656 C491.957,421.248 493.197,415.928 490.565,413.769 C487.932,411.606 482.417,413.422 478.259,417.82 C474.086,422.228 472.852,427.559 475.484,429.722" fill="#565A4A"/>
      <path d="M341.901,367.119 L425.498,308.919 L334.81,262.545 L251.208,320.745 z" fill="#B9704F"/>
      <path d="M327.275,315.582 C327.525,319.25 332.688,321.897 338.804,321.485 C344.926,321.061 349.676,317.755 349.432,314.087 C349.187,310.409 344.028,307.771 337.901,308.184 C331.79,308.603 327.035,311.909 327.275,315.582" fill="#565A4A"/>
      <path d="M372.97,312.485 C373.22,316.158 378.379,318.796 384.501,318.383 C390.623,317.97 395.383,314.654 395.127,310.985 C394.877,307.312 389.719,304.665 383.597,305.083 C377.481,305.501 372.725,308.812 372.97,312.485" fill="#565A4A"/>
      <path d="M281.579,318.684 C281.834,322.357 286.987,324.99 293.109,324.581 C299.231,324.168 303.985,320.852 303.735,317.184 C303.485,313.506 298.323,310.873 292.206,311.281 C286.084,311.699 281.329,315.015 281.579,318.684" fill="#565A4A"/>
      <path d="M348.12,462.965 L426.385,404.693 L425.304,308.501 L341.901,367.119 z" fill="#8C4940"/>
      <path d="M381.016,383.368 C378.312,388.781 378.664,394.24 381.811,395.546 C384.954,396.862 389.699,393.515 392.423,388.097 C395.127,382.669 394.77,377.22 391.628,375.914 C388.475,374.603 383.735,377.94 381.016,383.368" fill="#565A4A"/>
      <path d="M348.666,462.929 L263.263,415.759 L251.341,320.296 L341.901,367.119 z" fill="#AFC48A"/>
      <path d="M348.666,462.929 L263.263,415.759 L251.341,320.296 L341.901,367.119 z" fill="#B45F53"/>
      <path d="M305.337,388.495 C308.74,393.5 309.138,398.959 306.189,400.678 C303.261,402.397 298.093,399.729 294.675,394.725 C291.272,389.71 290.874,384.266 293.823,382.547 C296.761,380.828 301.919,383.485 305.337,388.495" fill="#565A4A"/>
      <path d="M283.365,401.336 C286.772,406.352 287.16,411.8 284.232,413.519 C281.283,415.238 276.131,412.576 272.712,407.56 C269.294,402.556 268.911,397.102 271.85,395.388 C274.794,393.669 279.951,396.326 283.365,401.336" fill="#565A4A"/>
      <path d="M327.3,375.66 C330.713,380.665 331.106,386.118 328.167,387.837 C325.218,389.557 320.066,386.889 316.647,381.884 C313.23,376.874 312.842,371.415 315.791,369.701 C318.729,367.976 323.882,370.645 327.3,375.66" fill="#565A4A"/>
      <path d="M280.671,363.278 C277.722,365.002 272.585,362.344 269.161,357.329 C265.743,352.314 265.355,346.866 268.299,345.141 C271.237,343.427 276.391,346.085 279.813,351.1 C283.232,356.104 283.619,361.558 280.671,363.278" fill="#565A4A"/>
      <path d="M331.713,438.074 C328.77,439.798 323.617,437.125 320.204,432.119 C316.781,427.115 316.393,421.661 319.337,419.942 C322.28,418.217 327.443,420.891 330.846,425.891 C334.264,430.9 334.652,436.354 331.713,438.074" fill="#565A4A"/>
    </g>
    <g>
      <path d="M718.3,4.755 C697.928,6.193 619.642,40.326 617.382,50.684 C615.123,61.042 619.384,143.478 624.088,152.541 C628.804,161.597 695.521,208.661 712.873,209.115 C730.225,209.582 799.289,167.118 803.463,158.797 C807.687,150.465 819.576,57.542 811.372,48.399 C803.181,39.245 728.751,4.031 718.3,4.755" fill="#FFFFFE"/>
      <path d="M713.02,110.261 L712.579,201.177 M723.262,97.637 L802.285,54.601 M626.2,54.877 L702.398,99.067 M718.3,4.755 C697.928,6.193 619.642,40.326 617.382,50.684 C615.124,61.042 619.384,143.478 624.088,152.541 C628.804,161.597 695.521,208.661 712.873,209.115 C730.225,209.582 799.289,167.118 803.464,158.797 C807.687,150.465 819.576,57.542 811.372,48.399 C803.18,39.245 728.751,4.031 718.3,4.755 z" fill-opacity="0" stroke="#9E9F9E" stroke-width="2.687" stroke-linecap="round" stroke-linejoin="round"/>
    </g>
    <g>
      <path d="M669.217,127.767 C672.533,136.497 670.887,145.197 665.606,147.206 C660.314,149.219 653.351,143.767 650.035,135.036 C646.732,126.311 648.366,117.605 653.658,115.603 C658.938,113.589 665.914,119.041 669.217,127.767" fill="#D8232A"/>
      <path d="M749.26,126.391 C744.04,133.685 736.242,137.031 731.833,133.875 C727.412,130.707 728.04,122.246 733.258,114.952 C738.465,107.67 746.287,104.323 750.696,107.48 C755.117,110.636 754.491,119.115 749.26,126.391" fill="#1A1919"/>
      <path d="M710.994,81.237 C701.453,81.384 693.679,76.809 693.581,71.037 C693.519,65.254 701.158,60.471 710.687,60.324 C720.204,60.177 727.989,64.75 728.076,70.522 C728.161,76.306 720.511,81.101 710.994,81.237" fill="#1A1919"/>
      <path d="M713.216,52.888 C704.694,53.023 697.757,48.934 697.657,43.794 C697.585,38.631 704.4,34.363 712.898,34.235 C721.395,34.105 728.357,38.182 728.432,43.334 C728.517,48.48 721.69,52.772 713.216,52.888" fill="#1A1919"/>
      <path d="M762.719,54.705 C754.221,54.835 747.307,50.745 747.22,45.606 C747.147,40.448 753.963,36.181 762.461,36.052 C770.946,35.911 777.896,40 777.958,45.151 C778.056,50.303 771.241,54.582 762.719,54.705" fill="#1A1919"/>
      <path d="M662.548,54.522 C654.026,54.663 647.089,50.579 647.027,45.421 C646.953,40.271 653.769,35.997 662.291,35.873 C670.765,35.745 677.728,39.815 677.789,44.974 C677.862,50.124 671.059,54.411 662.548,54.522" fill="#1A1919"/>
      <path d="M715.795,27.155 C708.685,27.266 702.84,23.839 702.767,19.517 C702.717,15.194 708.415,11.614 715.55,11.498 C722.685,11.388 728.506,14.819 728.579,19.136 C728.653,23.458 722.907,27.051 715.795,27.155" fill="#1A1919"/>
      <path d="M773.623,143.41 C768.416,150.699 760.606,154.051 756.185,150.889 C751.739,147.727 752.391,139.266 757.622,131.966 C762.817,124.683 770.614,121.337 775.047,124.493 C779.468,127.656 778.817,136.122 773.623,143.41" fill="#1A1919"/>
      <path d="M794.671,156.249 C790.054,162.722 783.115,165.706 779.198,162.893 C775.256,160.087 775.822,152.571 780.45,146.088 C785.068,139.615 792.03,136.644 795.948,139.451 C799.89,142.243 799.325,149.772 794.671,156.249" fill="#1A1919"/>
      <path d="M402.622,510.79 L326.792,555.75 C326.792,555.75 320.079,561.119 320.079,573.197 L320.079,653.727 C320.079,653.727 319.412,665.809 328.806,671.174 C338.2,676.547 400.611,712.782 400.611,712.782 C400.611,712.782 412.69,718.821 422.754,712.782 C432.822,706.743 497.914,670.507 497.914,670.507 C497.914,670.507 504.627,665.138 504.627,655.071 L504.627,571.857 C504.627,571.857 503.957,559.105 495.903,554.409 C487.85,549.711 422.084,510.79 422.084,510.79 C422.084,510.79 410.676,505.421 402.622,510.79" fill="#FFFBD0"/>
      <path d="M495.645,569.703 L493.171,565.263 L408.185,612.611 L327.687,566.845 L328.537,663.447 L409.461,709.203 L411.111,616.803 z" fill="#D6D1A3"/>
      <path d="M408.199,610.301 C406.273,609.209 328.684,565.096 328.684,565.096 C328.055,564.742 327.289,564.746 326.666,565.11 C326.047,565.478 325.673,566.144 325.676,566.866 L326.523,663.468 C326.53,664.185 326.921,664.846 327.547,665.203 L408.471,710.955 C409.087,711.309 409.845,711.306 410.461,710.952 C411.074,710.598 411.465,709.948 411.472,709.24 C411.472,709.24 413.064,620.26 413.101,617.998 M409.169,614.37 C409.169,614.37 489.02,569.88 492.392,568.002 C492.637,568.444 492.664,568.485 492.909,568.928 C489.537,570.802 410.131,615.044 410.131,615.044 C409.509,615.394 409.111,616.051 409.1,616.766 C409.1,616.766 407.62,699.513 407.508,705.79 C402.111,702.738 332.443,663.345 330.541,662.266 C330.521,660.082 329.789,576.736 329.732,570.326 C335.359,573.524 407.191,614.364 407.191,614.364 C407.804,614.707 408.552,614.714 409.169,614.37" fill="#D6D1A3"/>
      <path d="M429.471,555.307 C429.471,562.966 419.856,569.176 407.998,569.176 C396.137,569.176 386.525,562.966 386.525,555.307 C386.525,547.652 396.137,541.439 407.998,541.439 C419.856,541.439 429.471,547.652 429.471,555.307" fill="#D52F2A"/>
      <path d="M353.386,601.873 C354.039,609.998 349.769,616.973 343.859,617.446 C337.952,617.919 332.634,611.713 331.984,603.588 C331.327,595.46 335.594,588.485 341.498,588.012 C347.417,587.539 352.732,593.745 353.386,601.873" fill="#1A1919"/>
      <path d="M396.338,623.411 C396.94,631.535 392.636,638.487 386.719,638.926 C380.812,639.365 375.528,633.132 374.926,625 C374.317,616.868 378.625,609.92 384.531,609.481 C390.452,609.042 395.736,615.279 396.338,623.411" fill="#1A1919"/>
      <path d="M353.386,648.402 C354.039,656.53 349.769,663.505 343.859,663.975 C337.952,664.451 332.634,658.242 331.984,650.117 C331.327,641.988 335.594,635.013 341.498,634.544 C347.417,634.067 352.732,640.277 353.386,648.402" fill="#1A1919"/>
      <path d="M396.338,669.939 C396.94,678.067 392.636,685.019 386.719,685.457 C380.812,685.897 375.528,679.66 374.926,671.528 C374.317,663.4 378.625,656.449 384.531,656.013 C390.452,655.57 395.736,661.807 396.338,669.939" fill="#1A1919"/>
      <path d="M471.566,601.873 C470.909,609.998 475.179,616.973 481.092,617.446 C487.002,617.919 492.32,611.713 492.967,603.588 C493.623,595.46 489.354,588.485 483.45,588.012 C477.53,587.539 472.216,593.745 471.566,601.873" fill="#1A1919"/>
      <path d="M451.331,638.576 C450.783,646.143 454.588,652.655 459.814,653.121 C465.036,653.583 469.708,647.823 470.249,640.253 C470.803,632.682 467,626.17 461.78,625.708 C456.551,625.241 451.872,631.005 451.331,638.576" fill="#1A1919"/>
      <path d="M428.613,623.411 C428.007,631.535 432.312,638.487 438.228,638.926 C444.135,639.365 449.422,633.132 450.021,625 C450.63,616.868 446.323,609.92 440.42,609.481 C434.5,609.042 429.216,615.279 428.613,623.411" fill="#1A1919"/>
      <path d="M471.566,648.402 C470.909,656.53 475.179,663.505 481.092,663.975 C487.002,664.451 492.32,658.242 492.967,650.117 C493.623,641.988 489.354,635.013 483.45,634.544 C477.53,634.067 472.216,640.277 471.566,648.402" fill="#1A1919"/>
      <path d="M428.613,669.939 C428.007,678.067 432.312,685.019 438.228,685.457 C444.135,685.897 449.422,679.66 450.021,671.528 C450.63,663.4 446.323,656.449 440.42,656.013 C434.5,655.57 429.216,661.807 428.613,669.939" fill="#1A1919"/>
    </g>
  </g>
</svg>
